# xmcd
#
# Track frame offsets:
#	150
#	19922
#	41010
#
# Disc length: 732 seconds
#
# Revision: 1
# Processed by: cddbd v1.5.2PL0 Copyright (c) Steve Scherf et al.
# Submitted via: audiograbber 1.83.01
#
DISCID=1e02da03
DTITLE=Shania Twain - (If You're Not In It For Love) I'm Outta Here!
DYEAR=1996
DGENRE=Country
TTITLE0=If You're Not In It For Love) I'm Outta Here! (Mutt Lange Mix)
TTITLE1=If You're Not In It For Love) I'm Outta Here! (Dance Mix)
TTITLE2=No One Needs To Know
EXTD=YEAR: 1996 ID3G:   2
EXTT0=
EXTT1=
EXTT2=
PLAYORDER=
